<svg version="1.1" viewBox="0.0 0.0 137.0997375328084 102.21522309711285" fill="none" stroke="none" stroke-linecap="square" stroke-miterlimit="10" xmlns:xlink="http://www.w3.org/1999/xlink" xmlns="http://www.w3.org/2000/svg"><clipPath id="p.0"><path d="m0 0l137.09973 0l0 102.215225l-137.09973 0l0 -102.215225z" clip-rule="nonzero"/></clipPath><g clip-path="url(#p.0)"><path fill="#000000" fill-opacity="0.0" d="m0 0l137.09973 0l0 102.215225l-137.09973 0z" fill-rule="evenodd"/><path fill="#ffffff" d="m33.97807 5.4740133l-1.368496 0.683764l-1.3680115 0.9123306l-2.280342 2.2803426l-4.3326035 0l-5.9286957 0.22808266l-6.384863 0.22808266l-5.929181 0.45568085l-4.3326025 0.4561653l-1.368012 0.4561653l-0.68424803 0.22808266l0 0.4561653l0.45616534 0.68376446l1.5960946 2.052744l2.0522597 2.0522604l0.9123306 0.6837635l0.91184664 0.22808266l2.280342 -0.6837635l3.4207563 -0.684248l4.10452 -0.6842489l3.8764372 -0.4561653l2.96459 -0.45568085l1.8241768 0l-3.1921883 3.4202719l-2.5084248 3.6483536l-2.280344 4.1050034l-1.8246603 4.104521l-1.3680124 4.560686l-0.91184616 4.560684l-0.4561653 5.016365l0 5.0168495l0.4561653 0.6842499l1.1399288 0.4561653l1.3680124 0.4561653l1.5965776 0.2276001l1.3680134 -0.2276001l1.5960941 -0.22808456l1.5965786 -0.4561653l1.8241768 -0.9123306l1.8241768 -1.3680115l2.280342 -1.5960922l2.0522614 -1.5965805l0.9123306 -0.91184616l1.1399288 -1.368496l1.5960941 -2.736023l1.1404152 -2.0527458l0.4561653 -1.1399269l-0.4561653 0l-0.4561653 0.22808075l-0.4561653 -2.0522575l-0.22808456 -1.5965805l-0.2276001 1.1404152l-0.4561634 0.9123306l-0.9123306 2.0522575l-1.1399288 1.596096l-0.9123306 1.1399269l-1.596096 1.5965805l-1.5960941 1.1399307l-1.368496 1.1404114l-1.5960941 1.1399307l-1.5960941 0.9123306l-1.5965786 0.6837616l-1.3680115 0.22808456l-0.684248 -0.22808456l-0.4561653 -0.22759628l0 -2.280342l0.22808266 -2.5084267l0.4561653 -2.5084267l0.684248 -2.280342l1.3680115 -4.788767l2.0522594 -4.560684l2.280342 -4.104521l2.280342 -3.648838l2.5084267 -2.9641056l2.280342 -2.280343l3.4207573 -0.4561653l5.4725304 -0.4561653l6.6129456 -0.4561653l6.384861 -0.22808266l0.22808456 -0.68376446l-0.22808456 -1.1404133l-0.22808075 -0.6837635l-0.45568466 -0.684248l-2.9645882 -0.22808266l-2.7365074 -0.4561653l-4.560688 -1.1399293l-4.104519 -1.1404133l-2.0522575 -0.4561653l-2.0522614 -0.45568132z" fill-rule="evenodd"/><path fill="#ffffff" d="m46.975876 9.976377E-4l-1.1399269 0.22808269l-0.6842499 0.22808269l-0.22808075 0.22808269l-3.4202728 6.15678l-2.964592 6.612945l-2.7365074 6.6129446l-2.5084229 7.069111l-1.8241787 7.069109l-1.8241768 7.069111l-1.1404133 6.8410263l-0.6837635 6.6129456l0.22759819 0.22808456l0.4561653 0.45568085l1.1404133 0.68424606l1.3680115 0.4561653l0.4561653 0l0.22808266 -0.22808075l0.68424606 -4.3326035l0.6837654 -3.8764381l0.9123306 -3.4207535l1.1399307 -2.964592l0.9123306 -2.5079422l1.1399269 -2.0522575l1.1404152 -1.5965805l0.9123306 -1.1399269l-0.9123306 3.1921883l-0.22808456 1.1404114l-0.22808075 1.3680115l0.22808075 2.0522614l0.4561653 1.5965805l0.91184616 1.3680115l1.368496 0.9123306l1.3680115 0.45568085l1.596096 -0.22808456l1.368496 -0.22759628l1.596096 -0.9123306l3.1926727 -3.1926727l2.0522575 -2.0522614l1.1399307 -1.3680115l0 -0.4561653l-0.22808075 -0.4561653l-0.6837654 -0.6837654l-0.6842499 -0.9123306l-0.22808075 -0.22808075l-1.596096 2.0522575l-1.368496 1.368496l-0.91184616 0.91184616l-0.4561653 0.22808456l-1.1399269 0.68424606l-0.6842499 0.22808456l-1.5960922 0l-0.4561653 -0.22808456l-0.45616913 -0.68424606l0 -0.91184616l0 -1.368496l0.45616913 -1.596096l0.6837616 -2.0522575l1.1404152 -2.7365093l1.5960922 -2.96459l0 -0.4561653l0 -0.45568085l-0.91184616 -1.1404133l-1.368496 -0.91184807l-0.6837616 -0.22808266l-0.4561653 0.22808266l-1.8241806 0.6837654l-1.8246613 1.5965786l-1.8241768 1.8241768l-1.3680115 1.5960941l2.280342 -7.069111l2.7365074 -7.52479l3.6483574 -7.753359l4.104519 -8.20904l-0.22808456 -0.45616534l-0.4561653 -0.22808269l-1.3680115 -0.22808269z" fill-rule="evenodd"/><path fill="#ffffff" d="m62.025944 28.961203l0.22808075 0.22808266l0.22808456 0.4561653l0 0.91184616l-0.4561653 1.368496l-0.6837654 1.3680115l-2.0522575 3.648838l-2.7365074 3.1921883l-2.280342 2.7365112l-1.1404152 0.9123306l-0.6837654 0.22759628l-0.22808075 -0.45568085l0 -0.68424606l0.91184616 -2.280346l1.368496 -2.9645882l1.596096 -2.9641075l1.3680115 -2.5084229l1.1404114 -1.5965805l0.4561653 0.22808266l0.45568085 -0.22808266l0.9123306 -0.45568085l0.9123306 -0.4561653l0.6837654 -0.684248zm-5.2444496 -3.8764381l-0.22808075 0.22808266l-1.368496 2.0522614l-2.280342 3.8764362l-2.5079422 5.244932l-1.1404152 2.5084267l-0.68424606 2.5084267l-0.22808456 2.280342l0.22808456 1.8241768l0.4561653 0.6837616l0.4561653 0.4561653l0.68424606 0.4561653l0.91184616 0.22808456l1.1404152 0l0.91184616 -0.22808456l1.1404152 -0.4561653l1.1399269 -0.6837616l2.0522614 -1.5965805l2.0522575 -2.0522575l1.8246613 -2.280346l1.8241768 -2.7365074l1.3680153 -2.5079384l1.1404114 -2.7365074l0.6837616 -2.280344l0 -1.8241768l0 -0.9123306l-0.45568085 -0.684248l-0.4561615 -0.4561653l-0.45616913 -0.2276001l-1.3680115 -0.22808266l-0.68424606 0l-0.4561653 0.22808266l-1.1399307 1.3680134l-0.68424606 0.4561653l-0.6842499 0.22808266l-0.22808075 -0.22808266l-0.22808456 -0.22808266l0 -0.4561653l-0.45568085 -0.4561653l-0.9123306 -0.91184807l-0.9123306 -0.4561653z" fill-rule="evenodd"/><path fill="#ffffff" d="m70.007385 24.6286l-0.45616913 0.22808266l-0.68424225 1.1399307l-0.45568085 1.5965786l-1.3684998 4.560686l-0.91184235 5.244446l-0.6842499 5.0168533l-0.45616913 4.104519l0 1.5965767l0.22808838 0.91184616l0.4561615 0.4561653l0.45616913 0.22808456l1.1399231 0.22808075l1.140419 -0.22808075l0.6837616 -0.22808456l0.22808075 -2.9645882l0.45616913 -3.1921883l0.68424225 -2.7365112l0.6837692 -2.5084229l1.3684921 -4.104519l0.91185 -1.3680115l0 1.8241768l-0.45616913 4.104519l-0.45568085 4.3326035l-0.22808075 2.7365074l0.22808075 0.22808075l0.22808075 0.22808456l1.1399307 0.45568085l1.8241806 0l0.4561615 -1.3680115l0.9123306 -2.280342l0.6837692 -2.280346l0.68424225 -1.5960922l0.22808838 2.736023l0.68424225 1.8246613l0.91185 1.596096l1.1404114 0.9123306l1.1399307 0.6837616l1.1404114 0.22808456l1.3680115 0l1.140419 -0.22808456l0.91184235 -0.22808075l0.9123306 -0.6837654l1.8241806 -1.5965767l1.5960922 -1.8241768l-0.22808075 -0.6842499l-0.45568085 -0.91184616l-0.6842499 -0.6842499l-0.22808075 -0.22808075l-0.22808838 0.22808075l-0.9123306 1.1404152l-1.1399231 1.1399307l-1.3680115 1.1404114l-0.6842499 0.22808456l-0.6842499 0l-0.91185 -0.22808456l-0.68424225 -0.9123306l-0.45616913 -1.1399269l-0.22808075 -1.5965805l0 -1.8241768l0 -1.8241768l0.4561615 -2.0522614l0.6842499 -1.8241768l0.91185 -1.8246613l1.1404114 -1.3680115l-0.4561615 -0.684248l-0.9123306 -0.22808266l-1.3680191 0l-1.1399231 0.22808266l-1.3684998 0.22808266l-1.3680115 0.684248l-0.9123306 1.1399288l-0.6842499 1.1404133l0.45616913 -2.0522594l0.22808075 -0.9123306l-0.22808075 -0.6837635l-0.22808075 -0.9123306l-0.91185 -0.9123306l-1.1404114 -0.91184807l-0.6837616 -0.22808266l-0.9123306 0.22808266l-0.91233826 0.6837654l-1.3680115 1.1404133l0.22808838 -0.4561653l0.22808075 -0.4561653l0 -0.6837654l-0.45616913 -0.4561653l-0.9123306 -0.22808266l-0.91184235 -0.22808266z" fill-rule="evenodd"/><path fill="#ffffff" d="m99.42375 29.64545l0.6837692 0.4561653l0.4561615 0.45568085l0.45616913 0.684248l0 0.91233253l-0.9123306 2.7365074l-0.91185 2.280342l-1.3684921 2.0522575l-1.3680115 1.3680115l-1.3680115 0.91233444l-1.140419 0.6837616l-0.91184235 0.22808456l-0.45616913 0l-0.4561615 -0.22808456l0 -0.6837616l-0.22808838 -1.3684998l0.22808838 -1.8241768l0.68424225 -2.0522575l1.1399307 -2.0522614l1.3684998 -1.8241768l0.91184235 -0.9123306l0.9123306 -0.684248l0.91185 -0.6837635l1.3684921 -0.4561653zm6.384865 -5.4730167l-0.4561615 0.22808266l-0.45616913 0.4561653l-0.91185 1.1399307l-0.9123306 1.8246613l-0.4561615 -0.684248l-0.6837616 -0.4561653l-0.45616913 -0.4561653l-0.6842499 -0.22808266l-1.5960922 0l-1.824173 0.22808266l-1.8246613 0.684248l-1.8241806 1.3680115l-1.5960922 1.5965786l-1.5960999 1.8241768l-1.1404114 2.280344l-1.1399307 2.7365074l-0.22808075 1.5960922l-0.22808075 1.3680115l0 3.4207573l0.22808075 0.91184616l0.45616913 0.9123306l0.91184235 1.1404152l1.1404114 0.6837616l1.5960999 0l2.0522537 -0.22808075l1.140419 -0.45568085l1.1399307 -0.9123306l2.9645844 -2.0522614l-0.22808075 0.91184616l0.22808075 0.9123306l0.22808838 0.9123306l0.45568085 0.6837654l0.4561615 0.68424606l0.6842499 0.6842499l0.6842499 0.22808075l0.91184235 0.22808456l0.6842499 0.22759628l0.91185 -0.22759628l0.9123306 -0.4561653l0.68424225 -0.4561653l2.280342 -1.3680115l0.91185 -0.9123306l0.4561615 -0.6842499l0.22808838 -0.6837616l0.4561615 -0.4561653l-0.22808075 -0.4561653l-0.22808075 0l-0.22808838 0.22808075l-0.68424225 0.4561653l-0.91185 0.6837654l-1.824173 0.9123306l-1.140419 0.22808075l-1.3680115 0l-0.22808075 -0.4561653l-0.22808075 -1.5960922l-0.22808838 -1.8241768l0.22808838 -2.0522614l0.4561615 -2.280342l0.91185 -2.5084267l1.1404114 -2.7365074l1.5960922 -2.7365074l2.0522614 -2.7365074l-0.22808075 -0.4561653l-0.6837616 -0.91184807l-1.140419 -0.684248l-0.68424225 -0.22808266z" fill-rule="evenodd"/><path fill="#000000" fill-opacity="0.0" d="m109.91314 43.783672l0 0l-0.22808838 0.6837616l-0.4561615 0.6842499l-0.91185 0.9123306l-2.280342 1.3680115l0 0l-0.68424225 0.4561653l-0.9123306 0.4561653l-0.91185 0.22759628l-0.6842499 -0.22759628l0 0l-0.91184235 -0.22808456l-0.6842499 -0.22808075l-0.6842499 -0.6842499l-0.4561615 -0.68424606l0 0l-0.45568085 -0.6837654l-0.22808838 -0.9123306l-0.22808075 -0.9123306l0.22808075 -0.91184616l0 0l-2.9645844 2.0522614l-1.1399307 0.9123306l-1.140419 0.45568085l0 0l-2.0522537 0.22808075l-0.9123306 0l-0.6837692 0l0 0l-1.1404114 -0.6837616l-0.91184235 -1.1404152l0 0l-0.45616913 -0.9123306l-0.22808075 -0.91184616l0 0l0 -3.4207573l0.22808075 -1.3680115l0.22808075 -1.5960922l0 0l1.1399307 -2.7365074l1.1404114 -2.280344l0 0l1.5960999 -1.8241768l1.5960922 -1.5965786l0 0l1.8241806 -1.3680115l1.8246613 -0.684248l0 0l1.824173 -0.22808266l1.5960922 0l0 0l0.6842499 0.22808266l0.45616913 0.4561653l0.6837616 0.4561653l0.4561615 0.684248l0 0l0.9123306 -1.8246613l0 0l0.91185 -1.1399307l0 0l0.45616913 -0.4561653l0.4561615 -0.22808266l0 0l0.91185 0l0.68424225 0.22808266l0 0l1.140419 0.684248l0 0l0.6837616 0.91184807l0 0l0.22808075 0.4561653l0 0l-2.0522614 2.7365074l-1.5960922 2.7365074l0 0l-1.1404114 2.7365074l-0.91185 2.5084267l0 0l-0.4561615 2.280342l-0.22808838 2.0522614l0 0l0.22808838 1.8241768l0.22808075 1.5960922l0 0l0.22808075 0.4561653l0.45616913 0l0 0l0.91184235 0l1.140419 -0.22808075l0 0l1.824173 -0.9123306l0.91185 -0.6837654l0.68424225 -0.4561653l0 0l0.22808838 -0.22808075l0.22808075 0l0.22808075 0.4561653" fill-rule="evenodd"/><path fill="#000000" fill-opacity="0.0" d="m92.582726 42.415176l0 0l0.45616913 0l0.91184235 -0.22808456l0 0l1.140419 -0.6837616l1.3680115 -0.91233444l0 0l1.3680115 -1.3680115l1.3684921 -2.0522575l0 0l0.91185 -2.280342l0.9123306 -2.7365074l0 0l0 -0.91233253l-0.45616913 -0.684248l0 0l-0.4561615 -0.45568085l-0.6837692 -0.4561653l0 0l-1.3684921 0.4561653l-0.91185 0.6837635l-0.9123306 0.684248l-0.91184235 0.9123306l0 0l-1.3684998 1.8241768l-1.1399307 2.0522614l0 0l-0.68424225 2.0522575l-0.22808838 1.8241768l0 0l0.22808838 1.3684998l0 0.6837616l0.4561615 0.22808456l0 0" fill-rule="evenodd"/><path fill="#ffffff" d="m113.333405 42.415176l0.9123306 2.5084229l0.45616913 2.5084267l0 2.0522575l-0.22808075 2.280346l-0.22808838 1.1404114l-0.4561615 1.1399307l-0.6837616 0.9123306l-0.6842499 0.91184616l-1.3684998 0.9123306l-1.1399231 0.68424606l-1.1399307 0.2276001l-0.9123306 0l-1.5960922 -0.2276001l-0.6842499 -0.22808075l-0.45616913 -0.6842499l-0.4561615 -0.68424606l-0.22808075 -0.6837654l0 -0.68424606l0.22808075 -1.596096l0.6842499 -1.5965767l0.9123306 -1.596096l1.3680115 -1.596096l2.5084229 -2.9645882l2.280342 -1.8241768l0.91184235 -0.9123306zm5.4730225 -17.558495l-2.5084305 0.22808266l-2.0522614 0.684248l-1.3680115 0.91184807l-1.1404114 1.1404133l-0.6842499 1.3680115l-0.45568085 1.5960941l0 1.5965786l0 1.8241768l0.45568085 1.596096l0.45616913 1.8241768l1.1404114 2.9645882l-1.3684921 0.91233444l-2.9641113 2.5079384l-3.6488342 3.648838l-1.5960999 1.8241768l-1.3680115 2.0522614l-0.9123306 2.0522614l-0.22808075 0.9123306l0 0.91184616l0 0.9123306l0.45616913 0.9123306l0.4561615 0.91184616l0.91185 0.68424606l0.68424225 0.4561653l0.9123306 0.22808456l1.3680191 0.22808075l1.5960922 0.2276001l1.5965805 0l1.5960922 -0.2276001l1.824173 -0.4561653l1.8241806 -0.68424606l1.5965805 -0.9123306l1.3680115 -1.3680115l1.3680115 -1.8241768l0.9123306 -2.0522614l0.22808075 -1.368496l0 -1.596096l-0.6842499 -3.420269l-0.68424225 -3.4207573l-0.6837692 -2.7365074l0.91185 -0.6837654l1.3684921 -0.9123306l1.3680115 -1.1399269l0.6842499 -0.4561653l0 -0.22808456l-0.22808075 -0.4561653l-0.22808075 -0.4561653l-0.6842499 0l-0.6837616 0.22808456l-1.3684998 0.9123306l-2.0522614 1.1399269l-0.91184235 -2.7365074l-0.22808838 -0.91184616l-0.22808075 -1.1404114l0.22808075 -1.596096l0.22808838 -0.684248l0.45568085 -0.6837635l1.1404114 -0.9123306l1.3680115 -0.684248l1.8241806 -0.22808266l2.052742 -0.22759819l0.2276001 -0.22808266l0 -0.4561653l-0.91185 -1.1404133l-1.1404114 -1.1399307l-0.91185 -0.22808266z" fill-rule="evenodd"/><path fill="#ffffff" d="m44.467453 56.325314l-1.1399307 0.4561653l-1.368496 1.1399269l-2.5084267 2.0522614l-4.3325996 0l-5.9286976 0.22808075l-6.384863 0.22808456l-5.7010975 0.4561653l-4.560686 0.68424606l-1.3680115 0.22808456l-0.684248 0.22808075l0 0.45568466l0.4561653 0.68424606l1.5960941 2.0522575l2.0522604 2.0522614l0.9123306 0.6842499l0.9123297 0.22808075l2.5084267 -0.6842499l3.420271 -0.68424225l3.8764362 -0.6837692l3.8769226 -0.4561615l3.1921902 -0.45616913l1.8241768 0l-3.1921902 3.420761l-2.7365074 3.8764343l-2.280344 3.8764343l-1.8241768 4.1045227l-1.368496 4.560684l-0.91184616 4.560684l-0.4561653 5.0168533l0 5.0168457l0.684248 0.6842499l0.91184616 0.45568085l1.368496 0.45616913l1.8241768 0.22808075l1.3680134 -0.22808075l1.368496 -0.22808838l1.8241768 -0.4561615l1.596096 -0.91185l1.8241768 -1.1404114l1.8246613 -1.5960922l1.8241768 -2.0522614l1.8241768 -2.7365112l-0.22808456 -0.4561615l-0.4561653 -0.45568085l-0.4561653 -0.22808075l-0.6837616 -0.22808838l-2.280342 2.2803497l-1.5965805 1.3680115l-1.5960922 0.9123306l-1.3680134 0.91184235l-1.5965786 0.6842499l-1.5960941 0.22808075l-0.684248 -0.22808075l-0.45568275 -0.22808075l0 -2.280342l0.22808456 -2.5084305l0.45568085 -2.5084229l0.684248 -2.280342l1.5960941 -4.7882843l1.8246593 -4.560684l2.280346 -4.1050034l2.5079384 -3.6483536l2.280342 -2.964592l2.280342 -2.280342l3.4207573 -0.45616913l5.700615 -0.45567703l6.384861 -0.4561653l6.3853455 -0.22808456l0.22808456 -0.68424606l-0.22808456 -0.91185l-0.22808075 -0.9123306l-0.4561653 -0.68424606l-2.964592 -0.2276001l-2.5084229 -0.4561653l-4.560684 -1.1404114l-4.1045227 -1.1399307l-2.0522575 -0.4561653l-2.280342 -0.22808075z" fill-rule="evenodd"/><path fill="#ffffff" d="m49.484303 80.26867l0.68424606 0.4561615l0.6837654 0.45616913l0.22808075 0.68424225l0 0.91185l-0.6837616 2.7365112l-1.1404152 2.5084229l-1.1399269 1.824173l-1.368496 1.3684998l-1.3680115 0.91184235l-1.1404152 0.6842499l-0.91184616 0.22808838l-0.6842499 0l-0.22808075 -0.22808838l-0.22808456 -0.6842499l0 -1.3680115l0.22808456 -1.824173l0.6842499 -2.052742l0.91184616 -2.0522614l1.368496 -1.8241806l0.91184616 -0.91184235l0.9123306 -0.6842499l1.1399269 -0.6842499l1.1404152 -0.4561615zm6.6129456 -5.472534l-0.4561653 0.22808075l-0.4561653 0.45616913l-0.91184616 1.1399307l-1.1404152 1.824173l-0.45568085 -0.6837616l-0.4561653 -0.45616913l-0.6842499 -0.4561615l-0.68424606 -0.22808075l-1.596096 0l-1.5960922 0.22808075l-1.8241768 0.9123306l-1.8246613 1.1399307l-1.596096 1.5960922l-1.596096 1.8246613l-1.368496 2.2798615l-0.91184616 2.7365036l-0.4561653 1.5965805l-0.22808075 1.3680115l0 3.4202728l0.22808075 0.9123306l0.6842499 0.9123306l0.6837616 1.1399307l1.368496 0.68424225l0.6842499 0l0.6837616 0.22808838l2.0522614 -0.45616913l1.1404152 -0.4561615l1.3680115 -0.6842499l2.7365074 -2.280342l0 0.9123306l0 0.9123306l0.22808075 0.91184235l0.4561653 0.9123306l0.6837654 0.6842499l0.68424606 0.45568085l0.6842499 0.22808075l0.6837654 0.22808838l0.9123306 0.22808075l0.9123306 -0.22808075l0.6837616 -0.22808838l0.9123306 -0.6837616l0.91184616 -0.9123306l1.1404152 -1.3680115l1.8241768 -3.1926727l1.368496 -3.1926727l0.91184616 -2.280342l0 -0.45568085l-0.22808456 -0.6842499l-0.22808075 -0.6842499l-0.22808456 -0.22808075l-1.1399269 0l0 0.22808075l-0.4561653 1.140419l-0.4561653 1.1399231l-1.596096 2.964592l-1.5960922 2.280342l-0.9123306 1.3680115l-1.3680115 1.3684998l-0.4561653 0.22808075l0 -0.22808075l-0.4561653 -1.3684998l0 -1.824173l0.22808075 -2.280342l0.4561653 -2.280342l0.6842499 -2.5084305l1.1399269 -2.7365036l1.596096 -2.736023l2.0522575 -2.7365112l-0.22759628 -0.4561615l-0.6842499 -0.9123306l-1.1404114 -0.6837692l-0.6837654 -0.22808075z" fill-rule="evenodd"/><path fill="#ffffff" d="m75.708 59.973667l0.22808075 0.22808075l0 0.22808456l-0.6842499 2.0522614l-1.1399231 3.4207535l-2.0522614 4.3326035l-2.280342 4.3326035l-1.3680115 1.824173l-1.3684998 1.5960999l-1.1399307 1.1404114l-1.3684921 0.6842499l0.6842499 -2.5084305l1.1399231 -2.9645844l1.5965805 -2.964592l1.5960922 -2.736023l1.5960999 -2.7365112l1.5965729 -2.5084229l1.3680191 -2.0522614l1.3680115 -1.368496zm0 -3.6483536l-0.6837616 0.22808075l-0.9123306 0.4561653l-1.8241806 1.596096l-1.8241806 2.5084229l-2.0522537 2.9645958l-2.0527496 3.1921844l-2.0522537 3.8764343l-1.5960999 4.105011l-1.3680115 3.8764343l-0.9123306 4.1045227l-0.4561653 3.8764343l0.22808456 1.8246613l0.22808075 1.824173l0.22808456 1.5960999l0.68424606 1.5960922l0.45568085 1.1404114l0.6842499 0.91185l0.68424606 0.6842499l0.6842499 0.68424225l0.91184616 0.22808838l0.9123306 0.22808075l1.5960922 0l1.140419 -0.45616913l0.91184235 -0.4561615l1.1404114 -0.6842499l0.91185 -0.91184235l1.1404114 -1.3684998l1.1399307 -1.8241806l1.8241806 -2.5084229l2.0522537 -3.8764343l-0.22759247 -0.22808075l0 -0.22808838l-0.6842499 -0.68424225l-0.45616913 -0.2276001l-0.22808075 0l-0.22808075 0.2276001l-0.91185 1.8246613l-1.3684921 2.0522537l-2.280342 2.9641113l-1.1399307 1.1404114l-1.3684998 0.9123306l-0.6837616 0.45568085l-0.9123306 0.22808075l-0.6842499 -0.22808075l-0.6837616 -0.45568085l-0.6842499 -0.9123306l-0.4561615 -1.1404114l-0.6837654 -2.5079422l0 -2.5084229l0.22759628 -2.0522614l0.9123306 -0.22808075l1.140419 -0.45616913l0.91184235 -0.4561615l0.9123306 -0.91185l2.0522614 -1.8246613l1.824173 -2.0522614l1.8241806 -2.7365036l1.3684998 -2.736023l1.5960922 -2.7365112l1.1399307 -2.964592l0.9123306 -2.5084229l0.68424225 -2.5084267l0.22808838 -2.0522614l0.22759247 -1.5960922l-0.22759247 -0.9123306l-0.9123306 -0.6837654l-0.6842499 -0.4561653l-0.6837616 -0.22808075z" fill-rule="evenodd"/><path fill="#ffffff" d="m91.442314 59.2899l-0.45616913 0.91184616l-0.45568085 1.1404152l-1.3684921 2.9641037l-2.0522614 3.420761l-2.0522614 3.1926727l-1.824173 2.736023l-1.3680115 1.5965805l0.45568085 -1.5965805l1.5965729 -3.192192l1.8241806 -3.6488342l2.280342 -3.6483574l1.8241806 -2.7365074l0.9123306 -0.91184616l0.6837616 -0.22808456zm-6.6129456 21.434929l0.45616913 0.22808075l0.22808075 0.22808838l0.4561615 0.9123306l-0.22808075 1.3680115l-0.4561615 1.824173l-0.9123306 1.5960999l-1.1399307 1.8246613l-1.5960999 1.824173l-1.8246613 1.5960922l-2.0522537 1.3684998l0 -0.6842499l0 -1.1404114l0.68424225 -3.192192l0.9123306 -3.1926727l0.45568085 -1.824173l2.280342 -1.5960999l1.5965805 -0.9123306l1.1399307 -0.22808075zm5.7010956 -24.399517l-1.1404114 0.4561653l-1.1399307 0.91184616l-1.1404114 1.1404114l-1.1399307 1.3680115l-2.280342 3.1926765l-2.0522614 3.8764343l-2.0522537 4.1045227l-1.8246613 4.560684l-1.5960999 4.788765l-1.1399231 4.3326035l-0.9123306 4.1045227l-0.22808838 3.6488342l0.22808838 1.5960999l0.22808075 1.3684921l0.4561615 1.1399307l0.45568085 0.9123306l0.9123306 0.22808075l0.9123306 0.2276001l0.91185 0l1.1404114 -0.2276001l1.8241806 -1.1404114l1.824173 -1.3680115l1.8241806 -2.0522614l1.5965805 -2.280342l1.3680115 -2.280342l1.1399231 -2.5084229l0.9123306 -2.5084305l0.45616913 -2.280342l0 -2.0522614l-0.22808075 -0.68424225l-0.45616913 -0.6842499l-0.4561615 -0.6837616l-0.45568085 -0.45616913l-0.6842499 -0.22808075l-0.9123306 0l-1.1399307 0.22808075l-1.1404114 0.22808075l-2.9641113 1.3680115l1.3680115 -1.1399231l1.5960999 -1.3684998l1.5965805 -2.0522614l1.5960922 -2.0522537l1.3680115 -2.0522614l1.3684921 -2.280342l2.0522614 -4.560688l0.6837616 -1.8241768l0.45616913 -1.596096l0.22808075 -1.368496l-0.22808075 -0.91184616l-0.45616913 -0.4561653l-0.91184235 -0.4561653l-0.9123306 -0.22808075z" fill-rule="evenodd"/><path fill="#ffffff" d="m102.159775 79.5849l0.22808838 0.22808838l0.22808075 0.45568085l0 0.9123306l-0.45616913 1.3680115l-0.6837616 1.3684921l-2.0522614 3.6483536l-2.5084229 3.1926727l-2.5084229 2.7365112l-1.140419 0.91185l-0.6837616 0.22808075l-0.22808075 -0.45616913l0.22808075 -0.6837616l0.6837616 -2.280342l1.3684998 -2.964592l1.5960922 -2.964592l1.5960999 -2.5084229l0.9123306 -1.3680115l0.9123306 0l0.91184235 -0.6842499l0.9123306 -0.4561615l0.6837616 -0.6837692zm-5.244446 -3.876915l-0.22808075 0.22808075l-1.1404114 2.0522614l-2.5079422 4.1050034l-2.5084305 5.016365l-0.9123306 2.7365036l-0.68424225 2.280342l-0.45568085 2.2803497l0.22759247 1.824173l0.45616913 0.6842499l0.4561615 0.4561615l0.6842499 0.45616913l1.1399307 0.22808075l0.9123306 0l1.1399307 -0.22808075l0.9123306 -0.45616913l1.1399307 -0.68424225l2.0522537 -1.5960999l2.0527496 -2.0522537l2.0522537 -2.2803497l1.5960999 -2.7365036l1.5960922 -2.5084229l0.9123306 -2.7365112l0.6842499 -2.280342l0.2276001 -1.8241806l-0.2276001 -0.91184235l-0.22808075 -0.6842499l-0.45616913 -0.4561615l-0.6842499 -0.22808838l-1.3680115 -0.22808075l-0.4561615 0l-0.6842499 0.22808075l-1.1399307 1.3684998l-0.6842499 0.45568085l-0.68424225 0.22808075l-0.22808838 -0.22808075l0 -0.22808075l-0.22759247 -0.45568085l-0.45616913 -0.45616913l-0.9123306 -0.6842499l-0.91184235 -0.68424225z" fill-rule="evenodd"/><path fill="#ffffff" d="m110.14122 76.8484l0.91184235 0.22808075l1.8246613 0.22808075l-0.4561615 1.3680115l-0.45616913 1.140419l-0.68424225 -1.5965805l-0.45568085 -0.6837616l-0.6842499 -0.6842499zm23.94336 -31.924797l-0.68377686 0.22808456l-1.8246613 1.1399269l-1.824173 2.0527458l-1.824173 2.5079422l-2.0522614 2.7365074l-3.8764343 6.157261l-3.6488419 6.1567802l-2.5084229 5.244446l-1.5960999 2.964592l-1.824173 0.22808838l-2.7365112 0l-2.5084229 -0.22808838l-1.1399307 -0.22808075l-0.4561615 -0.22808075l-0.6842499 0l-0.6837616 0.4561615l-0.22808838 0.45616913l0.22808838 0.22808075l0.91184235 0.6842499l1.140419 1.1399307l0.6837616 1.1404114l0.9123306 1.3680115l0.6842499 1.5960922l0.45568085 1.5965805l0.68424225 3.6483536l-0.4561615 3.192192l-0.6837616 4.333084l-0.22808838 3.6483536l0 2.280342l0.6837692 0.45616913l0.68424225 0.22808075l1.3680115 0.22808075l1.3684998 0l0.6842499 -0.4561615l0.22759247 -0.45616913l0 -1.824173l0 -2.0522614l0.6842499 -4.7887726l1.1404114 -5.0168457l1.1399307 -4.3326035l1.140419 -3.1926727l0.45568085 -1.3680115l1.5965729 -0.22808075l3.4202728 -0.6842499l4.3326035 -1.3680115l2.0522614 -0.9123306l2.0522614 -0.91185l0.22807312 -0.22808075l0 -0.4561615l0 -1.1399307l-0.22807312 -1.3684998l-0.45568848 -0.6842499l-1.1404114 0.6842499l-1.5960846 0.6842499l-3.420761 1.3680115l-3.192192 0.9123306l-1.824173 0.45616913l1.1399231 -3.1926804l2.280342 -4.104515l2.964592 -5.0168533l3.4202805 -5.2449303l3.6488342 -4.7882843l1.824173 -2.0527458l1.824173 -1.8241768l-0.22807312 -0.4561653l-0.4561615 -0.45568085l-1.1399384 -0.68424606l-0.912323 -0.22808456z" fill-rule="evenodd"/></g></svg>