<?xml version="1.0" standalone="yes"?>

<svg version="1.1" viewBox="0.0 0.0 800.0 600.0" fill="none" stroke="none" stroke-linecap="square" stroke-miterlimit="10" xmlns="http://www.w3.org/2000/svg" xmlns:xlink="http://www.w3.org/1999/xlink"><clipPath id="p.0"><path d="m0 0l800.0 0l0 600.0l-800.0 0l0 -600.0z" clip-rule="nonzero"></path></clipPath><g clip-path="url(#p.0)"><path fill="#000000" fill-opacity="0.0" d="m0 0l800.0 0l0 600.0l-800.0 0z" fill-rule="evenodd"></path><path fill="#533d3d" d="m213.37007 54.664043l-7.4173126 3.7060356l-7.4147034 4.9448814l-12.359573 12.359577l-23.48294 0l-32.133865 1.2362213l-34.606293 1.2362213l-32.136486 2.469818l-23.48294 2.4724426l-7.4146957 2.472435l-3.708662 1.2362213l0 2.4724426l2.4724407 3.7060394l8.650917 11.125984l11.12336 11.12336l4.9448814 3.7060318l4.9422607 1.2362213l12.359581 -3.7060318l18.54068 -3.708664l22.24672 -3.708664l21.010498 -2.472435l16.068237 -2.469818l9.887146 0l-17.301834 18.538055l-13.59581 19.774284l-12.359573 22.249344l-9.8897705 22.24672l-7.4146957 24.719162l-4.942253 24.719147l-2.4724426 27.18898l0 27.19159l2.4724426 3.7086792l6.1784744 2.4724426l7.4146957 2.4724426l8.653549 1.2335815l7.4146957 -1.2335815l8.650917 -1.2362366l8.653549 -2.4724426l9.887131 -4.9448853l9.887146 -7.414673l12.359573 -8.65094l11.123367 -8.653534l4.94487 -4.9422607l6.178482 -7.4173126l8.650925 -14.829407l6.1811066 -11.125977l2.4724274 -6.178482l-2.4724274 0l-2.4724426 1.2362213l-2.4724426 -11.123352l-1.2362213 -8.653549l-1.2335968 6.1811066l-2.4724426 4.94487l-4.9448853 11.123367l-6.178482 8.650925l-4.94487 6.178467l-8.650925 8.653549l-8.650909 6.178482l-7.417328 6.1810913l-8.650925 6.178467l-8.650909 4.9448853l-8.653549 3.7060547l-7.4147034 1.236206l-3.7086563 -1.236206l-2.4724426 -1.2336121l0 -12.359558l1.2362213 -13.59581l2.4724426 -13.59581l3.7086563 -12.359573l7.4147034 -25.955383l11.123352 -24.719162l12.359589 -22.24672l12.359573 -19.776901l13.59581 -16.065613l12.359573 -12.359581l18.54068 -2.4724426l29.661423 -2.4724426l35.842514 -2.472435l34.606293 -1.2362213l1.2362366 -3.7060394l-1.2362366 -6.181099l-1.236206 -3.7060394l-2.469818 -3.708664l-16.068237 -1.2362137l-14.832031 -2.4724426l-24.719147 -6.178482l-22.246735 -6.181099l-11.123352 -2.4724426l-11.123367 -2.4698143z" fill-rule="evenodd"></path><path fill="#533d3d" d="m283.8189 25.0l-6.1784973 1.2362213l-3.7086487 1.2362194l-1.2362366 1.2362213l-18.53804 33.37008l-16.068253 35.842518l-14.832016 35.84252l-13.595795 38.314957l-9.887146 38.314972l-9.887131 38.314957l-6.1811066 37.07875l-3.7060394 35.8425l1.2335968 1.2362366l2.4724426 2.469818l6.1811066 3.7086487l7.414688 2.4724426l2.4724426 0l1.2362213 -1.236206l3.708664 -23.48294l3.7060394 -21.010498l4.94487 -18.54071l6.178482 -16.068222l4.9448853 -13.593185l6.178482 -11.123352l6.1810913 -8.653549l4.9448853 -6.178467l-4.9448853 17.301834l-1.2362213 6.1810913l-1.236206 7.4147034l1.236206 11.123367l2.4724426 8.653549l4.9422607 7.414673l7.417328 4.9448853l7.4147034 2.469818l8.650909 -1.236206l7.417328 -1.2336121l8.650909 -4.9448853l17.304474 -17.304443l11.123352 -11.123367l6.178467 -7.414688l0 -2.4724426l-1.236206 -2.4724426l-3.7060547 -3.7060394l-3.7086487 -4.9448853l-1.236206 -1.2362213l-8.65094 11.123367l-7.417328 7.4173126l-4.94223 4.9422607l-2.4724426 1.2362213l-6.1784973 3.708664l-3.7086487 1.2362213l-8.650909 0l-2.4724426 -1.2362213l-2.4724426 -3.708664l0 -4.9422607l0 -7.4173126l2.4724426 -8.650925l3.7060242 -11.123352l6.1810913 -14.832031l8.65094 -16.068237l0 -2.4724426l0 -2.469818l-4.9422607 -6.1811066l-7.417328 -4.9422455l-3.7060242 -1.2362213l-2.4724426 1.2362213l-9.887146 3.7060242l-9.8897705 8.653549l-9.887131 9.887146l-7.4147034 8.650909l12.359573 -38.314957l14.832031 -40.784775l19.774261 -42.02362l22.246735 -44.493443l-1.2362366 -2.4724407l-2.4724426 -1.2362194l-7.414673 -1.2362213z" fill-rule="evenodd"></path><path fill="#533d3d" d="m365.39108 181.96588l1.236206 1.2362213l1.2362366 2.4724426l0 4.9422455l-2.4724426 7.417328l-3.7060547 7.4147034l-11.123352 19.776901l-14.832031 17.301834l-12.359558 14.832031l-6.181122 4.9448853l-3.7060242 1.2335815l-1.2362366 -2.469818l0 -3.7086487l4.9422607 -12.359589l7.417328 -16.068237l8.65094 -16.065628l7.414673 -13.595795l6.181122 -8.653549l2.4724426 1.2362213l2.469818 -1.2362213l4.9448547 -2.4698029l4.9448853 -2.4724426l3.7060547 -3.708664zm-28.425201 -21.010498l-1.2362366 1.2362213l-7.4172974 11.123352l-12.359589 21.010498l-13.59317 28.427826l-6.181122 13.595795l-3.7086487 13.59581l-1.2362366 12.359589l1.2362366 9.8871155l2.4724426 3.7060547l2.4724426 2.4724426l3.7086487 2.4724426l4.9422607 1.236206l6.1810913 0l4.9422607 -1.236206l6.181122 -2.4724426l6.178467 -3.7060547l11.123352 -8.653534l11.123383 -11.123352l9.88974 -12.359589l9.887146 -14.832016l7.4147034 -13.593185l6.1810913 -14.832016l3.7060547 -12.359573l0 -9.887146l0 -4.9448853l-2.469818 -3.708664l-2.4724426 -2.4724274l-2.4724426 -1.2335968l-7.4147034 -1.2362213l-3.7086487 0l-2.4724426 1.2362213l-6.1784973 7.414688l-3.7086487 2.4724426l-3.7086487 1.2362213l-1.2362366 -1.2362213l-1.236206 -1.2362213l0 -2.4724426l-2.469818 -2.4724426l-4.9448853 -4.9422455l-4.9448853 -2.4724426z" fill-rule="evenodd"></path><path fill="#533d3d" d="m408.6509 158.48294l-2.4724426 1.2362213l-3.7086487 6.178482l-2.469818 8.653534l-7.417328 24.719162l-4.9422607 28.425201l-3.7086487 27.191605l-2.4724426 22.246704l0 8.653564l1.236206 4.94223l2.4724426 2.4724426l2.4724426 1.2362366l6.1784973 1.236206l6.1810913 -1.236206l3.7060242 -1.2362366l1.2362366 -16.068237l2.4724426 -17.301819l3.7086487 -14.832031l3.7060547 -13.595795l7.4172974 -22.24672l4.9422607 -7.4147034l0 9.887146l-2.4724426 22.24672l-2.469818 23.48294l-1.236206 14.832001l1.236206 1.2362366l1.2362366 1.236206l6.178467 2.469818l9.887146 0l2.4724426 -7.4147034l4.9448853 -12.359558l3.7060242 -12.359589l3.7086792 -8.650925l1.236206 14.829407l3.7086792 9.889755l4.9422607 8.650909l6.1810913 4.9448853l6.178467 3.7060547l6.181122 1.236206l7.414673 0l6.181122 -1.236206l4.9422607 -1.2362366l4.9448853 -3.7060242l9.8871155 -8.653534l8.65094 -9.887146l-1.236206 -3.708664l-2.4698486 -4.9422607l-3.7086792 -3.708664l-1.236206 -1.2362213l-1.236206 1.2362213l-4.9448853 6.1811066l-6.178467 6.178482l-7.4147034 6.1810913l-3.7086792 1.2362366l-3.7086487 0l-4.9422607 -1.2362366l-3.7086487 -4.9448853l-2.4724426 -6.178467l-1.2362366 -8.653549l0 -9.887131l0 -9.887146l2.4724426 -11.123352l3.7086792 -9.887146l4.9422607 -9.8897705l6.1810913 -7.414688l-2.4724426 -3.708664l-4.9448853 -1.2362213l-7.4147034 0l-6.178467 1.2362213l-7.417328 1.2362213l-7.4147034 3.708664l-4.9448853 6.178467l-3.7086487 6.1811066l2.4724426 -11.123352l1.236206 -4.9448853l-1.236206 -3.7060394l-1.2362366 -4.9448853l-4.9422607 -4.94487l-6.1810913 -4.9422607l-3.7060242 -1.2362213l-4.9448853 1.2362213l-4.9448853 3.7060394l-7.4147034 6.1810913l1.2362366 -2.4724426l1.236206 -2.4724274l0 -3.7060394l-2.4724426 -2.4724426l-4.9448853 -1.2362213l-4.9422607 -1.2362213z" fill-rule="evenodd"></path><path fill="#533d3d" d="m568.08923 185.67455l3.7060547 2.4724426l2.472412 2.4698029l2.4724731 3.708664l0 4.9448853l-4.9448853 14.832016l-4.9422607 12.359589l-7.4173584 11.123352l-7.414673 7.4147034l-7.414673 4.9448853l-6.1811523 3.7060394l-4.9422607 1.2362213l-2.472412 0l-2.472412 -1.2362213l0 -3.7060394l-1.2362671 -7.417328l1.2362671 -9.887131l3.7086182 -11.123367l6.178467 -11.123352l7.4173584 -9.887146l4.9422607 -4.9448853l4.9448853 -3.708664l4.9422607 -3.7060242l7.4172974 -2.4724426zm34.606323 -29.664047l-2.4724731 1.2362213l-2.472412 2.4724426l-4.9422607 6.178482l-4.9448853 9.889755l-2.4724731 -3.708664l-3.7059937 -2.4724426l-2.4724731 -2.4724274l-3.7086182 -1.2362213l-8.65094 0l-9.887146 1.2362213l-9.8897705 3.7086487l-9.887146 7.4147034l-8.650879 8.653549l-8.65094 9.887131l-6.1810913 12.359589l-6.1784973 14.832016l-1.236206 8.650925l-1.2362366 7.414688l0 18.54068l1.2362366 4.9422607l2.4724426 4.9448853l4.9422607 6.1810913l6.1810913 3.7060547l8.65094 0l11.123352 -1.2362366l6.1810913 -2.469818l6.178467 -4.9448853l16.068237 -11.123352l-1.236206 4.9422607l1.236206 4.9448853l1.236206 4.9448853l2.4698486 3.7060242l2.472412 3.7086792l3.7086792 3.7086487l3.7086792 1.2362366l4.9422607 1.236206l3.7086182 1.2336121l4.9422607 -1.2336121l4.9448853 -2.4724426l3.7086792 -2.4724426l12.359558 -7.4147034l4.9422607 -4.9448853l2.4724731 -3.7086487l1.236206 -3.7060242l2.472412 -2.4724426l-1.236206 -2.4724426l-1.236206 0l-1.236206 1.236206l-3.7086792 2.4724426l-4.9422607 3.7060547l-9.887146 4.9448547l-6.1810913 1.2362366l-7.414673 0l-1.2362671 -2.4724426l-1.236206 -8.650909l-1.236206 -9.887146l1.236206 -11.123367l2.4724731 -12.359573l4.9422607 -13.59581l6.1810913 -14.832016l8.650879 -14.832016l11.123352 -14.832031l-1.236206 -2.4724274l-3.7059937 -4.9422607l-6.1811523 -3.708664l-3.7086182 -1.2362213z" fill-rule="evenodd"></path><path fill="#000000" fill-opacity="0.0" d="m624.94226 262.30447l0 0l-1.236206 3.7060242l-2.4724731 3.7086487l-4.9422607 4.9448853l-12.359558 7.4147034l0 0l-3.7086792 2.4724426l-4.9448853 2.4724426l-4.9422607 1.2336121l-3.7086182 -1.2336121l0 0l-4.9422607 -1.236206l-3.7086792 -1.2362366l-3.7086792 -3.7086487l-2.472412 -3.7086792l0 0l-2.4698486 -3.7060242l-1.236206 -4.9448853l-1.236206 -4.9448853l1.236206 -4.9422607l0 0l-16.068237 11.123352l-6.178467 4.9448853l-6.1810913 2.469818l0 0l-11.123352 1.2362366l-4.9448853 0l-3.7060547 0l0 0l-6.1810913 -3.7060547l-4.9422607 -6.1810913l0 0l-2.4724426 -4.9448853l-1.2362366 -4.9422607l0 0l0 -18.54068l1.2362366 -7.414688l1.236206 -8.650925l0 0l6.1784973 -14.832016l6.1810913 -12.359589l0 0l8.65094 -9.887131l8.650879 -8.653549l0 0l9.887146 -7.4147034l9.8897705 -3.7086487l0 0l9.887146 -1.2362213l8.65094 0l0 0l3.7086182 1.2362213l2.4724731 2.4724274l3.7059937 2.4724426l2.4724731 3.708664l0 0l4.9448853 -9.889755l0 0l4.9422607 -6.178482l0 0l2.472412 -2.4724426l2.4724731 -1.2362213l0 0l4.9422607 0l3.7086182 1.2362213l0 0l6.1811523 3.708664l0 0l3.7059937 4.9422607l0 0l1.236206 2.4724274l0 0l-11.123352 14.832031l-8.650879 14.832016l0 0l-6.1810913 14.832016l-4.9422607 13.59581l0 0l-2.4724731 12.359573l-1.236206 11.123367l0 0l1.236206 9.887146l1.236206 8.650909l0 0l1.2362671 2.4724426l2.472412 0l0 0l4.9422607 0l6.1810913 -1.2362366l0 0l9.887146 -4.9448547l4.9422607 -3.7060547l3.7086792 -2.4724426l0 0l1.236206 -1.236206l1.236206 0l1.236206 2.4724426" fill-rule="evenodd"></path><path fill="#000000" fill-opacity="0.0" d="m531.0105 254.88715l0 0l2.472412 0l4.9422607 -1.2362213l0 0l6.1811523 -3.7060394l7.414673 -4.9448853l0 0l7.414673 -7.4147034l7.4173584 -11.123352l0 0l4.9422607 -12.359589l4.9448853 -14.832016l0 0l0 -4.9448853l-2.4724731 -3.708664l0 0l-2.472412 -2.4698029l-3.7060547 -2.4724426l0 0l-7.4172974 2.4724426l-4.9422607 3.7060242l-4.9448853 3.708664l-4.9422607 4.9448853l0 0l-7.4173584 9.887146l-6.178467 11.123352l0 0l-3.7086182 11.123367l-1.2362671 9.887131l0 0l1.2362671 7.417328l0 3.7060394l2.472412 1.2362213l0 0" fill-rule="evenodd"></path><path fill="#533d3d" d="m643.4803 254.88715l4.9448853 13.595795l2.4724731 13.595795l0 11.123352l-1.236206 12.359589l-1.2362671 6.1810913l-2.472412 6.1784973l-3.7060547 4.9448853l-3.7086182 4.9422607l-7.4173584 4.9448853l-6.178467 3.7086487l-6.178467 1.2335815l-4.9448853 0l-8.65094 -1.2335815l-3.7086792 -1.2362366l-2.472412 -3.7086487l-2.472412 -3.7086487l-1.2362671 -3.7060547l0 -3.7086487l1.2362671 -8.65094l3.7086182 -8.653534l4.9448853 -8.650909l7.414734 -8.650909l13.595764 -16.068268l12.359619 -9.8871155l4.9421997 -4.9448853zm29.664062 -95.167984l-13.595764 1.2362213l-11.123413 3.708664l-7.414673 4.9422455l-6.1810913 6.1811066l-3.7086792 7.4147034l-2.4697876 8.650909l0 8.653549l0 9.887146l2.4697876 8.650909l2.4724731 9.887146l6.1810913 16.068237l-7.4173584 4.9448853l-16.065613 13.59317l-19.776855 19.776917l-8.65094 9.8871155l-7.414734 11.123383l-4.944824 11.123352l-1.2362671 4.9448853l0 4.9422607l0 4.9448853l2.4724731 4.9448547l2.472412 4.9422607l4.9422607 3.7086792l3.7086792 2.4724426l4.9448853 1.236206l7.414673 1.2362366l8.65094 1.2335815l8.653564 0l8.650879 -1.2335815l9.887146 -2.4724426l9.887146 -3.7086792l8.653564 -4.9448853l7.414673 -7.414673l7.414673 -9.887146l4.9448853 -11.123352l1.2362671 -7.417328l0 -8.65094l-3.7086792 -18.538055l-3.7086792 -18.54068l-3.7060547 -14.832016l4.9422607 -3.7060394l7.4173584 -4.94487l7.414673 -6.178482l3.7086792 -2.4724426l0 -1.2362213l-1.236206 -2.4724426l-1.236206 -2.4724426l-3.7086792 0l-3.7060547 1.2362213l-7.4172974 4.9448853l-11.123352 6.178482l-4.9422607 -14.832031l-1.2362671 -4.9422455l-1.236206 -6.1811066l1.236206 -8.650925l1.2362671 -3.708664l2.4697876 -3.7060242l6.1810913 -4.9448853l7.414734 -3.708664l9.887146 -1.2362213l11.125977 -1.2335968l1.2335815 -1.2362213l0 -2.4724426l-4.9422607 -6.1810913l-6.1810913 -6.178482l-4.9422607 -1.2362213z" fill-rule="evenodd"></path><path fill="#533d3d" d="m270.22308 330.28085l-6.178467 2.4724426l-7.417328 6.178467l-13.595795 11.123352l-23.48294 0l-32.13385 1.2362366l-34.606308 1.236206l-30.90026 2.4724426l-24.719154 3.7086487l-7.4147034 1.2362366l-3.7086563 1.236206l0 2.469818l2.472435 3.7086792l8.650925 11.123352l11.123352 11.123352l4.9448853 3.7086792l4.9448853 1.236206l13.595795 -3.7086487l18.538055 -3.7086792l21.010498 -3.7060242l21.013123 -2.4724426l17.30185 -2.4724426l9.887131 0l-17.301834 18.54068l-14.832016 21.010498l-12.359589 21.010498l-9.887131 22.246735l-7.417328 24.719147l-4.9422607 24.719147l-2.4724426 27.19162l0 27.19159l3.708664 3.7086792l4.9422607 2.4697876l7.417328 2.4724731l9.887131 1.236206l7.4147034 -1.236206l7.4173126 -1.236206l9.887146 -2.4724731l8.650925 -4.9422607l9.887131 -6.1810913l9.8897705 -8.65094l9.887131 -11.123352l9.887146 -14.832031l-1.2362213 -2.472412l-2.4724426 -2.4698486l-2.4724426 -1.236206l-3.7060394 -1.236206l-12.359573 12.359558l-8.653549 7.414734l-8.650909 4.9448853l-7.4147034 4.9422607l-8.653549 3.7086182l-8.650909 1.2362671l-3.708664 -1.2362671l-2.469818 -1.236206l0 -12.359558l1.2362213 -13.595825l2.469818 -13.595795l3.708664 -12.359589l8.650909 -25.952759l9.8897705 -24.719147l12.359573 -22.24936l13.593185 -19.774261l12.359573 -16.068237l12.359589 -12.359589l18.54068 -2.4724426l30.897644 -2.469818l34.606293 -2.4724426l34.608917 -1.236206l1.2362366 -3.7086792l-1.2362366 -4.9422607l-1.236206 -4.9448547l-2.4724426 -3.7086792l-16.068237 -1.2335815l-13.595825 -2.4724426l-24.719147 -6.181122l-22.246735 -6.178467l-11.123352 -2.4724426l-12.359589 -1.236206z" fill-rule="evenodd"></path><path fill="#533d3d" d="m297.4147 460.0551l3.7086487 2.4724426l3.7060547 2.4724426l1.236206 3.7086487l0 4.9422607l-3.7060242 14.832031l-6.181122 13.595795l-6.178467 9.887146l-7.417328 7.4172974l-7.4147034 4.9422607l-6.1810913 3.7086792l-4.9422607 1.236206l-3.7086487 0l-1.2362366 -1.236206l-1.236206 -3.7086792l0 -7.414673l1.236206 -9.887146l3.7086792 -11.125977l4.9422607 -11.123352l7.4172974 -9.887146l4.9422607 -4.9422607l4.9448853 -3.7086792l6.178467 -3.7086487l6.181122 -2.4724426zm35.84253 -29.661407l-2.4724426 1.236206l-2.4724426 2.4724426l-4.9422607 6.1784973l-6.181122 9.8871155l-2.469818 -3.7060242l-2.4724426 -2.4724426l-3.7086487 -2.4724426l-3.7086487 -1.236206l-8.65094 0l-8.650909 1.236206l-9.887146 4.9448853l-9.88974 6.178467l-8.65094 8.65094l-8.650909 9.88974l-7.417328 12.356964l-4.9422607 14.832031l-2.4724426 8.653534l-1.236206 7.414673l0 18.538086l1.236206 4.9448853l3.708664 4.9448853l3.7060394 6.178467l7.417328 3.7086792l3.708664 0l3.7060394 1.236206l11.123352 -2.472412l6.1810913 -2.4724731l7.4147034 -3.7086792l14.832031 -12.359558l0 4.9448853l0 4.9448853l1.236206 4.9422607l2.4724426 4.9448853l3.7060547 3.7086182l3.7086487 2.4698486l3.7086487 1.236206l3.7060547 1.236206l4.9448853 1.2362671l4.9448853 -1.2362671l3.7060242 -1.236206l4.9448853 -3.7060547l4.9422607 -4.944824l6.1810913 -7.414734l9.887146 -17.304443l7.417328 -17.304474l4.9422607 -12.359589l0 -2.469818l-1.2362366 -3.7086487l-1.236206 -3.7086792l-1.2362366 -1.236206l-6.178467 0l0 1.236206l-2.4724426 6.181122l-2.4724426 6.178467l-8.650909 16.068268l-8.65094 12.359558l-4.9448547 7.414673l-7.4147034 7.4173584l-2.4724426 1.236206l0 -1.236206l-2.4724426 -7.4173584l0 -9.887085l1.236206 -12.359619l2.4724426 -12.359558l3.7086792 -13.595825l6.178467 -14.832001l8.650909 -14.829407l11.123383 -14.832001l-1.2336121 -2.4724426l-3.7086487 -4.9448853l-6.181122 -3.7060547l-3.7060242 -1.236206z" fill-rule="evenodd"></path><path fill="#533d3d" d="m439.54855 350.0551l1.2362366 1.2362366l0 1.236206l-3.7086792 11.123352l-6.178467 18.54068l-11.123352 23.48294l-12.359589 23.48294l-7.4147034 9.887146l-7.417328 8.650909l-6.178467 6.181122l-7.417328 3.7086487l3.7086487 -13.595795l6.1784973 -16.068237l8.653534 -16.068237l8.650909 -14.829407l8.65094 -14.832031l8.653534 -13.595795l7.4147034 -11.123352l7.4147034 -7.417328zm0 -19.774261l-3.7060242 1.236206l-4.9448853 2.4724426l-9.887146 8.650909l-9.887146 13.595795l-11.123352 16.068268l-11.125977 17.301819l-11.123352 21.010498l-8.65094 22.24936l-7.4147034 21.010498l-4.9448853 22.246704l-2.472412 21.010498l1.236206 9.8897705l1.236206 9.887146l1.2362366 8.65094l3.7086487 8.650879l2.469818 6.1810913l3.7086792 4.9422607l3.7086487 3.7086792l3.7086792 3.7086792l4.94223 1.236206l4.9448853 1.236206l8.65094 0l6.1810913 -2.472412l4.9422607 -2.4724731l6.1810913 -3.7086182l4.9422607 -4.9422607l6.1810913 -7.4173584l6.1784973 -9.887146l9.887146 -13.595795l11.123352 -21.010498l-1.2336121 -1.236206l0 -1.2362366l-3.7086487 -3.7086487l-2.4724426 -1.2335815l-1.236206 0l-1.2362366 1.2335815l-4.9422607 9.8897705l-7.417328 11.123352l-12.359558 16.065643l-6.1784973 6.1810913l-7.417328 4.9448853l-3.7060242 2.4697876l-4.9448853 1.236206l-3.7086487 -1.236206l-3.7060547 -2.4697876l-3.7086487 -4.9448853l-2.4724426 -6.1810913l-3.7060242 -13.593201l0 -13.595795l1.2335815 -11.123352l4.9448853 -1.2362366l6.1810913 -2.4724426l4.9422607 -2.4724426l4.9448853 -4.9422607l11.123352 -9.88974l9.887146 -11.123383l9.887146 -14.832001l7.417328 -14.829407l8.650909 -14.832031l6.178467 -16.068237l4.9448853 -13.595795l3.7086792 -13.595795l1.236206 -11.123352l1.2336121 -8.65094l-1.2336121 -4.9448853l-4.9448853 -3.7060242l-3.7086487 -2.4724426l-3.7060547 -1.236206z" fill-rule="evenodd"></path><path fill="#533d3d" d="m524.8294 346.3491l-2.4724731 4.9422607l-2.4697876 6.1810913l-7.4173584 16.065613l-11.123322 18.54068l-11.123383 17.304474l-9.8871155 14.829376l-7.4147034 8.653564l2.469818 -8.653564l8.653534 -17.301819l9.887146 -19.776917l12.359589 -19.774261l9.8871155 -14.832031l4.9448853 -4.9422607l3.7060547 -1.236206zm-35.84253 116.17847l2.4724426 1.2362366l1.236206 1.236206l2.4724426 4.9448853l-1.236206 7.4147034l-2.4724426 9.8871155l-4.9448853 8.65094l-6.178467 9.8897705l-8.65094 9.887146l-9.88974 8.650879l-11.123383 7.4173584l0 -3.7086792l0 -6.1810913l3.7086792 -17.30185l4.9448853 -17.304474l2.469818 -9.8871155l12.359558 -8.65094l8.653564 -4.9448547l6.178467 -1.2362366zm30.900269 -132.2467l-6.1810913 2.4724426l-6.1784973 4.94223l-6.1810913 6.181122l-6.1784973 7.4147034l-12.359558 17.304443l-11.123383 21.010498l-11.123352 22.246735l-9.8897705 24.719147l-8.650909 25.955383l-6.178467 23.48294l-4.9448853 22.246735l-1.2362366 19.776886l1.2362366 8.65094l1.236206 7.4172974l2.4724426 6.178467l2.469818 4.9448853l4.9448853 1.236206l4.9448853 1.2336426l4.9422607 0l6.1810913 -1.2336426l9.887146 -6.1810913l9.887146 -7.414673l9.887146 -11.123352l8.653534 -12.359619l7.4147034 -12.359558l6.178467 -13.595795l4.9448853 -13.595795l2.472412 -12.359589l0 -11.123352l-1.236206 -3.7086792l-2.472412 -3.7086487l-2.4724731 -3.7060547l-2.4697876 -2.472412l-3.7086792 -1.2362366l-4.9448853 0l-6.178467 1.2362366l-6.1810913 1.236206l-16.065643 7.4147034l7.4147034 -6.1784973l8.65094 -7.4172974l8.653534 -11.123383l8.650909 -11.123352l7.414673 -11.123352l7.4173584 -12.359589l11.123352 -24.719147l3.7060547 -9.887146l2.472412 -8.650909l1.236206 -7.417328l-1.236206 -4.9422607l-2.472412 -2.4724426l-4.9422607 -2.4724426l-4.9448853 -1.236206z" fill-rule="evenodd"></path><path fill="#533d3d" d="m582.91864 456.3491l1.236206 1.236206l1.236206 2.469818l0 4.9448853l-2.472412 7.4147034l-3.7060547 7.417328l-11.123352 19.774261l-13.595825 17.304474l-13.595764 14.832031l-6.1810913 4.9422607l-3.7060547 1.236206l-1.236206 -2.4724731l1.236206 -3.7059937l3.7060547 -12.359619l7.4172974 -16.068207l8.65094 -16.068268l8.650879 -13.595795l4.9448853 -7.4147034l4.9448853 0l4.9422607 -3.7086487l4.9448853 -2.4724426l3.7060547 -3.7060242zm-28.425232 -21.013123l-1.236206 1.236206l-6.1810913 11.123352l-13.593201 22.24936l-13.595764 27.188965l-4.9448853 14.832031l-3.7086792 12.359558l-2.4697876 12.359619l1.2335815 9.887146l2.472412 3.7086182l2.4724731 2.4724731l3.7086792 2.472412l6.178467 1.236206l4.9448853 0l6.178467 -1.236206l4.9448853 -2.472412l6.178467 -3.7086792l11.123352 -8.65094l11.125977 -11.123352l11.123352 -12.359558l8.65094 -14.832031l8.65094 -13.595795l4.9448853 -14.832031l3.7086182 -12.359558l1.2336426 -9.887146l-1.2336426 -4.9422607l-1.236206 -3.7086487l-2.472412 -2.4724426l-3.7086792 -1.2362366l-7.414673 -1.236206l-2.4724731 0l-3.7086792 1.236206l-6.178467 7.417328l-3.7086182 2.469818l-3.7086792 1.236206l-1.236206 -1.236206l0 -1.2362366l-1.2336426 -2.469818l-2.472412 -2.472412l-4.9448853 -3.7086792l-4.9422607 -3.7086487z" fill-rule="evenodd"></path><path fill="#533d3d" d="m626.17847 441.51706l4.9422607 1.2362366l9.8897705 1.236206l-2.472412 7.4147034l-2.4724731 6.1810913l-3.7086792 -8.653534l-2.4697876 -3.7060547l-3.7086792 -3.7086487zm129.77429 -173.03412l-3.7060547 1.236206l-9.8897705 6.1784973l-9.887146 11.125977l-9.887085 13.59317l-11.123413 14.832031l-21.010498 33.37271l-19.776855 33.370056l-13.595825 28.425201l-8.65094 16.068237l-9.887085 1.2362366l-14.832031 0l-13.595825 -1.2362366l-6.178467 -1.236206l-2.4724731 -1.2362366l-3.7086182 0l-3.7060547 2.4724426l-1.236206 2.4724426l1.236206 1.2362366l4.9422607 3.7086487l6.1810913 6.1784973l3.7060547 6.1810913l4.9448853 7.4147034l3.7086792 8.650909l2.4697876 8.653534l3.7086792 19.774292l-2.4724731 17.30185l-3.7059937 23.485565l-1.2362671 19.774292l0 12.359558l3.7060547 2.472412l3.7086792 1.2362671l7.414673 1.236206l7.4173584 0l3.7086182 -2.4724731l1.2335815 -2.472412l0 -9.887146l0 -11.123352l3.7086792 -25.955383l6.1810913 -27.19162l6.178528 -23.48294l6.1810913 -17.304443l2.4697876 -7.4147034l8.653564 -1.236206l18.538025 -3.7086792l23.482971 -7.4147034l11.123352 -4.9448853l11.123352 -4.94223l1.236206 -1.2362366l0 -2.4724426l0 -6.178467l-1.236206 -7.417328l-2.4697876 -3.7086487l-6.1811523 3.7086487l-8.650879 3.7086487l-18.54071 7.4147034l-17.301819 4.9448853l-9.887146 2.4724426l6.178467 -17.304474l12.359619 -22.246704l16.068237 -27.19159l18.538025 -28.427826l19.776917 -25.952759l9.887146 -11.125977l9.887146 -9.887146l-1.236206 -2.4724426l-2.4724731 -2.469818l-6.178467 -3.7086792l-4.9448853 -1.236206z" fill-rule="evenodd"></path></g></svg>

