<svg viewBox="0.0 0.0 137.0997375328084 102.21522309711285" fill="none" stroke-linecap="square" stroke-miterlimit="10" xmlns="http://www.w3.org/2000/svg"><clipPath id="a"><path d="M0 0h137.1v102.215H0V0z"/></clipPath><g clip-path="url(#a)"><path d="M0 0h137.1v102.215H0z"/><path fill="#533d3d" d="M33.978 5.474l-1.368.684-1.368.912-2.28 2.28h-4.333l-5.93.229-6.384.228-5.93.455-4.332.456-1.368.457-.684.228v.456l.456.684 1.596 2.052 2.053 2.053.912.683.912.228 2.28-.683 3.42-.685 4.105-.684 3.877-.456 2.964-.456h1.825l-3.193 3.42-2.508 3.649-2.28 4.105-1.825 4.105-1.368 4.56-.912 4.56-.456 5.017v5.017l.456.684 1.14.457 1.368.456 1.597.227 1.368-.227 1.596-.228 1.596-.457 1.824-.912 1.825-1.368 2.28-1.596 2.052-1.597.913-.911 1.14-1.369 1.596-2.736 1.14-2.053.456-1.14h-.456l-.456.228-.456-2.052-.228-1.596-.228 1.14-.456.912-.913 2.053-1.14 1.596-.912 1.14-1.596 1.596-1.596 1.14-1.368 1.14-1.597 1.14-1.596.913-1.596.684-1.368.228-.684-.228-.457-.228v-2.28l.228-2.509.457-2.508.684-2.28 1.368-4.79 2.052-4.56 2.28-4.104 2.28-3.65 2.51-2.963 2.28-2.28 3.42-.457 5.473-.456 6.613-.456 6.385-.228.228-.684-.228-1.14-.228-.684-.456-.685-2.965-.228-2.736-.456-4.56-1.14-4.105-1.14-2.053-.456-2.052-.456z" fill-rule="evenodd"/><path fill="#533d3d" d="M46.976.001l-1.14.228-.684.228-.228.228-3.42 6.157-2.965 6.613-2.737 6.613-2.508 7.069-1.824 7.07-1.825 7.068-1.14 6.841-.684 6.613.228.228.456.456 1.14.684 1.368.456h.457l.228-.228.684-4.332.684-3.877.912-3.42 1.14-2.965.912-2.508 1.14-2.052 1.14-1.597.913-1.14-.912 3.192-.228 1.14-.228 1.369.228 2.052.456 1.597.912 1.368 1.368.912 1.368.456 1.596-.228 1.369-.228 1.596-.912 3.192-3.193 2.053-2.052 1.14-1.368v-.456l-.228-.457-.684-.683-.684-.913-.229-.228-1.596 2.052-1.368 1.369-.912.912-.456.228-1.14.684-.684.228h-1.596l-.457-.228-.456-.684v-2.28l.456-1.597.684-2.052 1.14-2.736 1.597-2.965v-.912l-.912-1.14-1.369-.912-.683-.228-.457.228-1.824.684-1.824 1.596-1.825 1.825-1.368 1.596 2.28-7.07 2.737-7.524 3.649-7.754L49.028.913 48.8.457 48.344.23 46.976.001z" fill-rule="evenodd"/><path fill="#533d3d" d="M62.026 28.961l.228.228.228.456v.912l-.456 1.369-.684 1.368-2.052 3.649-2.737 3.192-2.28 2.736-1.14.913-.684.227-.228-.455v-.685l.912-2.28 1.368-2.965 1.596-2.964 1.368-2.508 1.14-1.597.457.228.456-.228.912-.455.912-.457.684-.684zm-5.245-3.876l-.228.228-1.368 2.052-2.28 3.877-2.508 5.244-1.14 2.509-.685 2.508-.228 2.28.228 1.825.456.684.456.456.685.456.911.228h1.14l.913-.228 1.14-.456 1.14-.684 2.052-1.597 2.053-2.052 1.824-2.28 1.824-2.737 1.368-2.508 1.14-2.736.685-2.28v-2.737l-.456-.684-.456-.456-.456-.228-1.368-.228h-.685l-.456.228-1.14 1.368-.684.456-.684.228-.228-.228-.228-.228v-.456l-.456-.456-.912-.912-.913-.456zm13.226-.456l-.456.228-.684 1.14-.456 1.596-1.368 4.56-.912 5.245-.684 5.017-.456 4.105v1.596l.228.912.456.456.456.228 1.14.228 1.14-.228.684-.228.228-2.964.456-3.192.685-2.737.683-2.508 1.369-4.105.912-1.368v1.824l-.457 4.105-.455 4.332-.228 2.737.228.228.228.228 1.14.456h1.824l.456-1.368.912-2.28.684-2.281.685-1.596.228 2.736.684 1.825.912 1.596 1.14.912 1.14.684 1.14.228h1.368l1.14-.228.913-.228.912-.684 1.824-1.597 1.596-1.824-.228-.684-.455-.912-.685-.684-.228-.228-.228.228-.912 1.14-1.14 1.14-1.368 1.14-.684.229h-.685l-.911-.228-.685-.913-.456-1.14-.228-1.596v-3.649l.456-2.052.684-1.824.912-1.825 1.14-1.368-.455-.684-.913-.228h-1.368l-1.14.228-1.368.228-1.368.684-.913 1.14-.684 1.14.456-2.052.228-.912-.228-.684-.228-.912-.912-.912-1.14-.912-.684-.228-.912.228-.912.684-1.368 1.14.228-.456.228-.456v-.684l-.456-.456-.913-.228-.912-.228z" fill-rule="evenodd"/><path fill="#533d3d" d="M99.424 29.645l.684.457.456.455.456.685v.912l-.912 2.736-.912 2.28-1.369 2.053-1.368 1.368-1.368.912-1.14.684-.912.228h-.456l-.456-.228v-.684l-.229-1.368.229-1.824.684-2.053 1.14-2.052 1.368-1.824.912-.912.912-.685.912-.683 1.369-.457zm6.385-5.473l-.457.229-.456.456-.912 1.14-.912 1.824-.456-.684-.684-.456-.456-.456-.684-.228h-1.596l-1.825.228-1.824.684-1.824 1.368-1.596 1.597-1.597 1.824-1.14 2.28-1.14 2.737-.228 1.596-.228 1.368v3.42l.228.912.456.913.912 1.14 1.14.684h1.597l2.052-.228 1.14-.456 1.14-.912 2.965-2.053-.228.912.228.913.228.912.456.684.456.684.684.684.684.228.912.228.684.228.912-.228.912-.456.685-.456 2.28-1.368.912-.912.456-.685.228-.683.456-.456-.228-.457h-.228l-.228.228-.684.457-.912.683-1.824.913-1.14.228h-1.369l-.228-.456-.228-1.596-.228-1.825.228-2.052.456-2.28.912-2.509 1.14-2.736 1.597-2.737 2.052-2.736-.228-.456-.684-.912-1.14-.684-.685-.229z" fill-rule="evenodd"/><path d="M109.913 43.784l-.228.683-.456.685-.912.912-2.28 1.368-.685.456-.912.456-.912.228-.684-.228-.912-.228-.684-.228-.684-.684-.456-.684-.456-.684-.228-.912-.228-.913.228-.912-2.965 2.053-1.14.912-1.14.456-2.052.228H90.53l-1.14-.684-.912-1.14-.456-.913-.228-.912v-3.42l.228-1.368.228-1.596 1.14-2.737 1.14-2.28 1.597-1.824 1.596-1.597 1.824-1.368 1.824-.684 1.825-.228h1.596l.684.228.456.456.684.456.456.684.912-1.824.912-1.14.456-.456.457-.229h.911l.685.229 1.14.684.684.912.228.456-2.052 2.736-1.596 2.737-1.14 2.736-.913 2.509-.456 2.28-.228 2.052.228 1.825.228 1.596.228.456h1.368l1.14-.228 1.825-.913.912-.683.684-.457.228-.228h.228l.228.457"/><path d="M92.583 42.415h.456l.912-.228 1.14-.684 1.368-.912 1.368-1.368 1.369-2.052.912-2.28.912-2.737v-.912l-.456-.685-.456-.455-.684-.457-1.369.457-.912.683-.912.685-.912.912-1.368 1.824-1.14 2.052-.684 2.053-.229 1.824.229 1.368v.684l.456.228"/><path fill="#533d3d" d="M113.333 42.415l.913 2.509.456 2.508v2.052l-.228 2.28-.228 1.141-.456 1.14-.684.912-.684.912-1.369.912-1.14.685-1.14.227h-.912l-1.596-.227-.684-.228-.457-.685-.456-.684-.228-.684v-.684l.228-1.596.684-1.597.913-1.596 1.368-1.596 2.508-2.964 2.28-1.824.912-.913zm5.473-17.558l-2.508.228-2.052.684-1.368.912-1.14 1.14-.685 1.368-.456 1.596v3.421l.456 1.596.456 1.824 1.14 2.965-1.368.912-2.964 2.508-3.649 3.65-1.596 1.823-1.368 2.053-.912 2.052-.228.912v1.824l.456.913.456.911.912.685.684.456.912.228 1.368.228 1.597.228h1.596l1.596-.228 1.824-.456 1.825-.684 1.596-.913 1.368-1.368 1.368-1.824.913-2.052.228-1.369v-1.596l-.685-3.42-.684-3.42-.684-2.737.912-.684 1.369-.912 1.368-1.14.684-.456v-.229l-.228-.456-.228-.456h-.684l-.684.228-1.369.913-2.052 1.14-.912-2.737-.228-.912-.228-1.14.228-1.596.228-.685.456-.683 1.14-.913 1.368-.684 1.824-.228 2.053-.228.228-.228v-.456l-.912-1.14-1.14-1.14-.912-.228zM44.467 56.325l-1.14.456-1.368 1.14-2.508 2.053h-4.333l-5.929.228-6.385.228-5.7.456-4.561.684-1.368.228-.685.228v.456l.457.684 1.596 2.053 2.052 2.052.912.684.913.228 2.508-.684 3.42-.684 3.877-.684 3.877-.456 3.192-.456h1.824l-3.192 3.42-2.737 3.877-2.28 3.876-1.824 4.105-1.369 4.56-.912 4.561-.456 5.017v5.017l.685.684.911.456 1.369.456 1.824.228 1.368-.228 1.369-.228 1.824-.456 1.596-.912 1.824-1.14 1.825-1.597 1.824-2.052 1.824-2.736-.228-.457-.456-.455-.456-.228-.684-.228-2.28 2.28-1.597 1.368-1.596.912-1.368.912-1.597.684-1.596.228-.684-.228-.456-.228v-2.28l.228-2.509.456-2.508.684-2.28 1.596-4.789 1.825-4.56 2.28-4.105 2.508-3.649 2.28-2.964 2.28-2.28 3.422-.457 5.7-.455 6.385-.457 6.386-.228.228-.684-.228-.912-.229-.912-.456-.684-2.964-.228-2.509-.456-4.56-1.14-4.105-1.14-2.052-.457-2.28-.228z" fill-rule="evenodd"/><path fill="#533d3d" d="M49.484 80.269l.685.456.683.456.228.684v.912l-.683 2.737-1.14 2.508-1.14 1.824-1.37 1.369-1.367.912-1.14.684-.912.228h-.685l-.228-.228-.228-.684v-1.368l.228-1.825.684-2.052.912-2.053 1.369-1.824.912-.912.912-.684 1.14-.684 1.14-.456zm6.613-5.473l-.456.228-.456.456-.912 1.14-1.14 1.824-.456-.683-.456-.456-.684-.457-.685-.228h-1.596l-1.596.228-1.824.913-1.825 1.14-1.596 1.596-1.596 1.824-1.368 2.28-.912 2.737-.456 1.596-.228 1.368v3.42l.228.913.684.912.684 1.14 1.368.684h.684l.684.229 2.052-.457 1.14-.456 1.369-.684 2.736-2.28v1.824l.228.912.457.912.683.685.685.455.684.228.684.229.912.228.912-.228.684-.229.912-.683.912-.913 1.14-1.368 1.825-3.192 1.368-3.193.912-2.28v-.456l-.228-.684-.228-.684-.228-.229h-1.14v.229l-.456 1.14-.456 1.14-1.596 2.964-1.597 2.28-.912 1.369-1.368 1.368-.456.228v-.228l-.456-1.368v-1.824l.228-2.28.456-2.281.684-2.508 1.14-2.737 1.596-2.736 2.053-2.737-.228-.456-.684-.912-1.14-.684-.685-.228z" fill-rule="evenodd"/><path fill="#533d3d" d="M75.708 59.974l.228.228v.228l-.684 2.052-1.14 3.42-2.052 4.333-2.28 4.333-1.369 1.824-1.368 1.596-1.14 1.14-1.369.685.685-2.508 1.14-2.965 1.596-2.965 1.596-2.736 1.596-2.736 1.597-2.509 1.368-2.052 1.368-1.368zm0-3.649l-.684.228-.912.457-1.824 1.596-1.824 2.508-2.053 2.965-2.052 3.192-2.053 3.876-1.596 4.105-1.368 3.877-.912 4.104-.456 3.877.228 1.824.228 1.825.228 1.596.684 1.596.456 1.14.684.912.684.684.685.684.911.229.913.228h1.596l1.14-.457.912-.456 1.14-.684.912-.912 1.14-1.368 1.14-1.824 1.825-2.509 2.052-3.876-.227-.228v-.228l-.685-.685-.456-.227h-.228l-.228.227-.912 1.825-1.368 2.052-2.28 2.964-1.14 1.14-1.37.913-.683.456-.912.228-.684-.228-.684-.456-.684-.912-.457-1.14-.683-2.509v-2.508l.227-2.052.913-.228 1.14-.457.912-.456.912-.912 2.052-1.824 1.825-2.053 1.824-2.736 1.368-2.736 1.596-2.737 1.14-2.964.913-2.509.684-2.508.228-2.052.228-1.596-.228-.913-.912-.683-.685-.457-.683-.228z" fill-rule="evenodd"/><path fill="#533d3d" d="M91.442 59.29l-.456.912-.456 1.14-1.368 2.964-2.052 3.421-2.053 3.193-1.824 2.736-1.368 1.596.456-1.596 1.597-3.192 1.824-3.65 2.28-3.648 1.824-2.736.913-.912.683-.228zM84.83 80.725l.457.228.228.228.456.912-.228 1.368-.456 1.825-.913 1.596-1.14 1.824-1.596 1.824-1.824 1.597-2.053 1.368v-1.824l.685-3.193.912-3.192.456-1.825 2.28-1.596 1.596-.912 1.14-.228zm5.701-24.4l-1.14.456-1.14.912-1.14 1.14-1.14 1.369-2.28 3.192-2.053 3.877-2.052 4.104-1.825 4.561-1.596 4.789-1.14 4.332-.912 4.105-.228 3.649.228 1.596.228 1.368.456 1.14.456.913.912.228.912.227h.912l1.14-.227 1.825-1.14 1.824-1.369 1.824-2.052 1.597-2.28 1.368-2.28 1.14-2.51.912-2.507.456-2.28v-2.053l-.228-.684-.456-.685-.456-.683-.456-.457-.684-.228h-.912l-1.14.228-1.14.229-2.965 1.368 1.368-1.14 1.596-1.369 1.597-2.052 1.596-2.052 1.368-2.053 1.368-2.28 2.053-4.56.683-1.825.457-1.596.228-1.368-.228-.912-.457-.456-.911-.457-.913-.228zm11.629 23.26l.228.228.228.456v.912l-.456 1.368-.684 1.369-2.052 3.648-2.509 3.193-2.508 2.736-1.14.912-.684.228-.228-.456.228-.684.683-2.28 1.369-2.965 1.596-2.964 1.596-2.509.913-1.368h.912l.912-.684.912-.456.684-.684zm-5.245-3.877l-.228.228-1.14 2.052-2.508 4.105-2.509 5.017-.912 2.736-.684 2.28-.456 2.28.228 1.825.456.684.456.456.684.457 1.14.228h.913l1.14-.228.912-.457 1.14-.684 2.052-1.596 2.053-2.052 2.052-2.28 1.596-2.737 1.596-2.508.913-2.737.684-2.28.227-1.824-.227-.912-.228-.685-.456-.456-.685-.228-1.368-.228h-.456l-.684.228-1.14 1.369-.684.455-.684.228-.229-.228v-.228l-.227-.455-.456-.457-.913-.684-.912-.684z" fill-rule="evenodd"/><path fill="#533d3d" d="M110.141 76.848l.912.228 1.825.229-.456 1.368-.457 1.14-.684-1.597-.456-.683-.684-.685zm23.944-31.924l-.684.228-1.825 1.14-1.824 2.052-1.824 2.508-2.052 2.737-3.877 6.157-3.649 6.157-2.508 5.244-1.596 2.965-1.824.228h-2.737l-2.508-.228-1.14-.228-.456-.228h-.685l-.683.456-.229.456.229.228.911.684 1.14 1.14.685 1.14.912 1.369.684 1.596.456 1.596.684 3.649-.456 3.192-.684 4.333-.228 3.648v2.28l.684.457.684.228 1.368.228h1.369l.684-.456.227-.456v-3.877l.685-4.788 1.14-5.017 1.14-4.333 1.14-3.193.456-1.368 1.597-.228 3.42-.684 4.333-1.368 2.052-.912 2.052-.912.228-.228V70.92l-.228-1.369-.456-.684-1.14.684-1.596.684-3.42 1.368-3.193.913-1.824.456 1.14-3.193 2.28-4.104 2.965-5.017 3.42-5.245 3.649-4.788 1.824-2.053 1.824-1.824-.228-.456-.456-.456-1.14-.684-.912-.228z" fill-rule="evenodd"/></g></svg>